<svg width="203" height="60" viewBox="0 0 203 60" fill="none" xmlns="http://www.w3.org/2000/svg">
<path d="M31.1718 18.2042C21.8451 14.8886 11.7076 14.6148 2.21558 17.422C1.83828 17.5123 1.48304 17.6777 1.17108 17.9083C0.859111 18.1389 0.596816 18.43 0.39985 18.7643C0.202884 19.0985 0.0752869 19.469 0.0246769 19.8536C-0.0259332 20.2383 0.00148172 20.6292 0.105285 21.003C0.624801 23.0879 1.38259 25.4833 2.29272 27.6551C2.30835 27.7059 2.33276 27.6815 2.33276 27.6307C2.20093 26.6122 2.98411 25.3261 4.5202 24.8583C11.9023 22.5089 19.8468 22.6141 27.1641 25.1581C27.434 25.2504 27.7196 25.2878 28.0042 25.2679C28.2887 25.2481 28.5664 25.1715 28.8209 25.0426C29.0754 24.9137 29.3015 24.7352 29.4859 24.5176C29.6702 24.2999 29.8092 24.0475 29.8945 23.7753C30.8046 20.8457 31.1718 18.8565 31.2626 18.3585C31.2782 18.2657 31.1962 18.2306 31.1718 18.2052V18.2042ZM8.66949 24.6493C7.55136 24.8827 6.0055 25.2499 4.84538 25.6347C2.52611 26.4344 2.63353 29.2566 3.86885 30.157C3.95967 29.6336 4.5202 28.9217 5.14518 28.6815C7.46054 27.7713 9.9468 27.2274 12.4604 27.0028C11.1831 26.4843 9.93703 25.7411 8.68609 24.6484L8.66949 24.6493ZM27.1328 30.2996C23.8008 28.734 20.1887 27.8523 16.5101 27.7065C12.8315 27.5608 9.16094 28.1539 5.71547 29.451C4.61101 29.8679 3.91963 31.2117 4.61101 32.487C5.81883 34.6707 7.18954 36.7602 8.71148 38.7378C8.49274 37.98 8.87945 36.5767 10.3638 36.1178C14.4691 34.8561 18.7766 35.3912 21.6398 36.5504C22.4484 36.8756 23.5929 36.6783 24.2345 35.7174C25.3286 34.0319 26.3237 32.2842 27.2148 30.4832C27.2549 30.4021 27.2149 30.3416 27.1328 30.2996ZM20.4807 40.4165C19.2797 39.81 18.1814 39.0189 17.2259 38.0718C16.7835 37.6294 16.1322 36.9937 15.4457 36.2359C13.8783 36.2359 12.3569 36.3931 10.73 36.9127C9.21928 37.3853 9.07768 39.1304 9.73879 40.0405C10.8569 41.434 11.6411 42.1859 12.892 43.4789C13.555 44.1291 14.4452 44.4954 15.3738 44.5C16.3024 44.5045 17.1962 44.147 17.8655 43.5033C18.842 42.5268 19.4426 41.8754 20.5461 40.6245C20.6115 40.5581 20.5861 40.4419 20.4797 40.4165H20.4807Z" fill="#282828"/>
<path d="M55.1445 37.28H63.7045V44H46.2645V15.68H55.1445V37.28ZM81.4989 44.28C78.8323 44.28 76.3789 43.6533 74.1389 42.4C71.9256 41.1467 70.1656 39.4133 68.8589 37.2C67.5523 34.9867 66.8989 32.4933 66.8989 29.72C66.8989 26.9467 67.5523 24.4533 68.8589 22.24C70.1656 20.0267 71.9256 18.3067 74.1389 17.08C76.3789 15.8267 78.8323 15.2 81.4989 15.2C84.1656 15.2 86.6056 15.8267 88.8189 17.08C91.0323 18.3067 92.7789 20.0267 94.0589 22.24C95.3656 24.4533 96.0189 26.9467 96.0189 29.72C96.0189 32.4933 95.3656 34.9867 94.0589 37.2C92.7789 39.4133 91.0189 41.1467 88.7789 42.4C86.5656 43.6533 84.1389 44.28 81.4989 44.28ZM81.4989 36C83.2589 36 84.6189 35.44 85.5789 34.32C86.5389 33.1733 87.0189 31.64 87.0189 29.72C87.0189 27.7733 86.5389 26.24 85.5789 25.12C84.6189 23.9733 83.2589 23.4 81.4989 23.4C79.7123 23.4 78.3389 23.9733 77.3789 25.12C76.4189 26.24 75.9389 27.7733 75.9389 29.72C75.9389 31.64 76.4189 33.1733 77.3789 34.32C78.3389 35.44 79.7123 36 81.4989 36ZM114.662 44L109.342 33.84H109.302V44H100.422V15.68H113.622C115.916 15.68 117.876 16.0933 119.502 16.92C121.129 17.72 122.342 18.8267 123.142 20.24C123.969 21.6267 124.382 23.2 124.382 24.96C124.382 26.8533 123.849 28.5333 122.782 30C121.742 31.4667 120.236 32.52 118.262 33.16L124.422 44H114.662ZM109.302 27.92H112.822C113.676 27.92 114.316 27.7333 114.742 27.36C115.169 26.96 115.382 26.3467 115.382 25.52C115.382 24.7733 115.156 24.1867 114.702 23.76C114.276 23.3333 113.649 23.12 112.822 23.12H109.302V27.92ZM145.779 25.36C145.433 24.8 144.939 24.3733 144.299 24.08C143.659 23.76 142.886 23.6 141.979 23.6C140.273 23.6 138.953 24.16 138.019 25.28C137.086 26.3733 136.619 27.88 136.619 29.8C136.619 32.0133 137.139 33.6667 138.179 34.76C139.219 35.8533 140.819 36.4 142.979 36.4C145.033 36.4 146.686 35.5733 147.939 33.92H140.859V27.64H155.299V36.52C154.073 38.6267 152.379 40.44 150.219 41.96C148.059 43.4533 145.326 44.2 142.019 44.2C139.086 44.2 136.526 43.6 134.339 42.4C132.179 41.1733 130.513 39.4667 129.339 37.28C128.193 35.0933 127.619 32.6 127.619 29.8C127.619 27 128.193 24.5067 129.339 22.32C130.513 20.1333 132.179 18.44 134.339 17.24C136.499 16.0133 139.033 15.4 141.939 15.4C145.646 15.4 148.659 16.2933 150.979 18.08C153.326 19.8667 154.713 22.2933 155.139 25.36H145.779ZM168.577 15.68V44H159.697V15.68H168.577ZM190.908 44L182.668 31.72V44H173.788V15.68H182.668V27.6L190.788 15.68H200.828L191.068 29.24L201.468 44H190.908Z" fill="#282828"/>
</svg>
